<?xml version="1.0" standalone="no"?>
<!DOCTYPE svg PUBLIC "-//W3C//DTD SVG 20010904//EN"
 "http://www.w3.org/TR/2001/REC-SVG-20010904/DTD/svg10.dtd">
<svg version="1.0" xmlns="http://www.w3.org/2000/svg"
 width="1490.000000pt" height="584.000000pt" viewBox="0 0 1490.000000 584.000000"
 preserveAspectRatio="xMidYMid meet">

<g transform="translate(0.000000,584.000000) scale(0.100000,-0.100000)"
fill="#000000" stroke="none">
<path d="M635 5481 c-22 -10 -52 -31 -67 -47 -60 -65 -58 -24 -58 -949 0 -818
1 -847 19 -884 22 -42 80 -97 118 -112 13 -5 193 -9 402 -9 376 0 378 0 422
23 29 16 54 40 74 72 l30 48 3 249 c2 136 1 248 0 248 -8 0 -194 -41 -230 -51
l-38 -10 0 -120 c0 -120 -7 -151 -39 -176 -11 -9 -76 -12 -223 -13 l-206 0
-31 26 -31 26 0 683 c0 672 0 683 20 708 30 38 77 47 245 47 168 0 215 -9 245
-47 18 -23 20 -40 20 -173 0 -81 2 -149 5 -152 4 -4 158 25 239 46 l26 6 0
208 c0 180 -3 212 -19 247 -22 47 -74 99 -114 114 -18 7 -162 11 -400 11 -341
0 -375 -2 -412 -19z"/>
<path d="M7200 4490 l0 -1010 135 0 135 0 0 495 0 495 324 0 c179 0 336 4 349
9 38 15 98 72 116 111 13 29 16 89 19 348 2 184 -1 340 -7 379 -12 78 -45 125
-111 160 l-43 23 -459 0 -458 0 0 -1010z m761 727 c43 -29 49 -56 49 -235 0
-148 -2 -171 -20 -199 -28 -46 -66 -53 -307 -53 l-213 0 0 248 c0 137 3 252 7
256 4 4 109 6 233 4 195 -3 228 -5 251 -21z"/>
<path d="M1917 4793 c-15 -71 -27 -131 -27 -135 0 -5 78 -8 174 -8 159 0 175
-2 199 -20 60 -47 63 -214 6 -266 -18 -16 -43 -20 -183 -25 -175 -6 -210 -15
-259 -65 -61 -61 -62 -66 -65 -346 -4 -284 1 -318 51 -375 62 -71 72 -73 440
-73 l328 0 -3 643 c-3 635 -3 642 -25 682 -27 50 -58 80 -105 100 -30 12 -83
15 -270 15 l-233 0 -28 -127z m391 -886 l3 -159 -111 4 c-104 3 -111 4 -137
31 -24 24 -28 36 -31 101 -6 112 17 162 83 179 11 3 58 4 105 4 l85 -2 3 -158z"/>
<path d="M2730 4200 l0 -720 135 0 135 0 0 585 0 585 105 0 c102 0 106 -1 137
-29 l33 -29 3 -556 2 -556 135 0 135 0 0 623 c0 691 0 694 -62 754 -63 61 -74
63 -433 63 l-325 0 0 -720z"/>
<path d="M3860 4904 c-45 -20 -77 -50 -101 -96 -18 -35 -19 -67 -19 -605 l0
-569 23 -44 c13 -26 40 -57 65 -75 l44 -30 251 -3 c212 -3 257 -1 293 13 52
20 109 81 123 132 6 21 11 113 11 206 l0 167 -135 0 -135 0 0 -90 c0 -85 -2
-91 -29 -122 -26 -29 -35 -33 -97 -36 -86 -4 -127 17 -143 75 -14 50 -15 695
-1 745 17 58 50 78 132 78 66 0 72 -2 104 -34 34 -34 34 -35 34 -125 l0 -91
135 0 135 0 0 168 c0 92 -5 184 -11 205 -13 46 -67 109 -113 131 -49 23 -513
23 -566 0z"/>
<path d="M4850 4904 c-45 -20 -77 -50 -101 -96 -18 -35 -19 -67 -19 -605 l0
-569 23 -43 c12 -25 41 -58 65 -75 l44 -31 338 -3 338 -3 -13 58 c-7 32 -21
93 -30 136 l-17 77 -198 0 c-109 0 -210 4 -224 10 -50 19 -61 52 -61 185 l0
120 205 5 c129 3 212 9 225 17 35 20 83 77 99 115 13 30 16 84 16 285 0 144
-5 264 -11 286 -13 47 -72 115 -116 134 -49 20 -515 18 -563 -3z m379 -275
c31 -29 41 -61 41 -134 0 -73 -10 -105 -41 -134 -20 -19 -35 -21 -131 -21
l-108 0 0 98 c0 176 24 212 144 212 60 0 76 -4 95 -21z"/>
<path d="M5690 4200 l0 -720 135 0 135 0 0 585 0 585 103 0 c102 0 104 0 132
-30 25 -26 30 -40 33 -95 3 -49 8 -66 21 -69 18 -6 241 -56 247 -56 9 0 3 339
-7 373 -6 21 -26 56 -45 77 -63 70 -64 70 -428 70 l-326 0 0 -720z"/>
<path d="M8550 4200 l0 -720 130 0 130 0 0 585 0 585 108 0 c106 0 109 -1 136
-29 22 -23 29 -41 34 -96 l7 -68 125 -28 c69 -15 128 -28 133 -28 11 -1 8 329
-4 372 -6 21 -26 56 -45 77 -63 70 -64 70 -428 70 l-326 0 0 -720z"/>
<path d="M9624 4913 c-30 -6 -101 -68 -122 -107 -15 -28 -17 -82 -20 -570 -2
-362 1 -555 8 -591 14 -66 64 -127 123 -150 37 -14 80 -16 294 -13 l251 3 43
30 c23 17 53 50 66 74 l23 44 0 564 c0 486 -2 569 -15 601 -21 49 -52 81 -100
103 -36 17 -66 18 -285 17 -135 0 -255 -3 -266 -5z m368 -292 l33 -29 3 -376
c2 -324 1 -380 -13 -406 -23 -45 -66 -63 -142 -58 -53 3 -68 9 -91 31 l-27 27
0 391 0 391 33 29 c29 26 39 29 102 29 63 0 73 -3 102 -29z"/>
<path d="M10595 4901 c-46 -21 -101 -79 -112 -119 -5 -15 -8 -279 -8 -587 l0
-560 25 -45 c14 -24 44 -58 68 -75 l44 -30 201 -5 202 -5 0 -193 0 -194 -32
-28 c-58 -52 -148 -52 -205 -1 -28 25 -32 36 -36 93 l-4 65 -129 30 c-71 16
-131 28 -134 25 -10 -10 -5 -302 6 -353 14 -62 71 -131 127 -151 51 -18 492
-18 543 0 20 7 51 27 69 45 69 67 65 -5 68 1105 l3 1002 -328 0 c-296 0 -332
-2 -368 -19z m413 -253 c16 -16 17 -765 1 -821 -14 -52 -57 -77 -129 -77 -72
0 -115 25 -130 77 -8 26 -10 155 -8 399 3 345 4 363 23 384 11 13 34 29 50 36
38 17 177 18 193 2z"/>
<path d="M11430 4200 l0 -720 135 0 135 0 0 585 0 585 103 0 c141 0 165 -19
176 -134 l6 -60 125 -28 c69 -15 128 -28 133 -28 10 0 8 304 -2 358 -11 55
-55 111 -111 140 -43 21 -52 22 -372 22 l-328 0 0 -720z"/>
<path d="M12460 4914 c0 -3 -11 -55 -25 -116 -37 -165 -54 -148 151 -148 l176
0 29 -31 c28 -30 29 -35 29 -123 0 -81 -3 -94 -24 -121 l-24 -30 -169 -6
c-154 -5 -172 -7 -213 -30 -24 -13 -58 -44 -75 -67 l-30 -44 -3 -281 -2 -282
29 -51 c24 -40 42 -58 83 -78 l52 -26 323 0 323 0 -2 654 -3 654 -31 44 c-18
23 -51 53 -75 65 -40 22 -53 23 -281 23 -131 0 -238 -3 -238 -6z m360 -1004
l0 -160 -91 0 c-102 0 -149 16 -168 56 -6 14 -11 61 -11 105 0 131 30 156 188
158 l82 1 0 -160z"/>
<path d="M13290 4200 l0 -720 135 0 135 0 0 585 0 585 104 0 c101 0 105 -1
135 -29 l31 -29 0 -556 0 -556 135 0 135 0 0 585 0 585 105 0 c102 0 106 -1
137 -29 l33 -29 3 -556 2 -556 130 0 130 0 0 640 c0 556 -2 646 -15 678 -21
49 -52 81 -100 103 -37 17 -78 19 -637 19 l-598 0 0 -720z"/>
<path d="M5845 3315 c-27 -7 -85 -20 -127 -30 l-78 -16 0 -1055 0 -1055 133 3
132 3 3 588 2 587 139 0 138 0 26 113 c14 61 27 121 29 132 3 19 -3 20 -164
23 l-168 2 0 355 c0 194 -3 356 -7 358 -5 2 -30 -2 -58 -8z"/>
<path d="M500 2175 l0 -1016 133 3 132 3 3 493 2 492 134 0 134 0 11 -32 c6
-18 65 -233 131 -478 66 -245 123 -453 126 -462 5 -16 20 -18 135 -18 84 0
129 4 129 11 0 5 -12 51 -26 102 -14 50 -50 181 -79 292 -29 110 -76 285 -104
388 -28 104 -51 190 -51 191 0 2 30 6 66 9 81 6 136 40 171 106 23 44 23 46
23 409 0 407 1 402 -70 466 -21 19 -56 39 -77 45 -24 7 -199 11 -480 11 l-443
0 0 -1015z m775 709 l36 -36 -3 -185 -3 -185 -33 -29 -32 -29 -235 0 -235 0 0
250 0 250 235 0 234 0 36 -36z"/>
<path d="M2330 2175 l0 -1016 468 3 467 3 47 32 c30 21 54 49 70 80 23 48 23
50 26 482 4 526 4 523 -79 603 l-59 57 0 304 c0 336 -2 346 -62 404 -65 63
-68 63 -493 63 l-385 0 0 -1015z m634 720 c40 -37 46 -65 46 -226 0 -239 -11
-252 -222 -257 -76 -3 -149 -1 -163 2 l-25 6 0 250 0 250 169 0 c165 0 169 0
195 -25z m138 -774 l33 -29 3 -280 c3 -233 1 -286 -12 -316 -25 -60 -52 -66
-306 -66 l-220 0 0 360 0 360 235 0 235 0 32 -29z"/>
<path d="M3726 2600 c-43 -13 -90 -49 -117 -88 l-24 -36 -3 -565 c-2 -311 0
-581 3 -600 4 -21 23 -50 54 -81 66 -66 104 -73 380 -68 234 4 247 6 305 64
63 64 61 39 64 614 2 289 0 549 -3 577 -8 67 -55 139 -110 167 -37 19 -59 21
-280 23 -132 1 -253 -2 -269 -7z m329 -274 c67 -28 66 -20 63 -451 l-3 -387
-30 -24 c-59 -47 -173 -41 -214 13 -20 25 -21 37 -21 412 1 303 3 390 14 403
34 46 124 62 191 34z"/>
<path d="M4765 2605 c-5 -2 -22 -6 -37 -9 -39 -9 -98 -64 -119 -111 -17 -37
-19 -80 -19 -598 0 -481 2 -563 15 -595 20 -47 50 -78 100 -105 38 -21 53 -22
290 -22 248 0 250 0 295 25 24 14 58 45 75 68 l30 44 3 559 c2 376 -1 573 -8
599 -12 46 -59 103 -104 128 -26 14 -67 17 -271 19 -132 1 -244 1 -250 -2z
m299 -279 c67 -28 66 -19 66 -442 0 -369 -1 -382 -21 -407 -44 -57 -170 -60
-221 -5 l-28 30 0 383 c0 375 0 383 21 409 12 15 31 32 43 36 33 13 103 11
140 -4z"/>
<path d="M6495 2601 c-67 -17 -127 -74 -145 -141 -7 -26 -10 -223 -8 -599 l3
-559 30 -44 c17 -23 51 -54 75 -68 45 -25 47 -25 295 -25 269 0 281 2 343 59
55 49 62 80 62 281 l0 185 -135 0 -135 0 0 -96 c0 -92 -1 -97 -28 -124 -57
-56 -185 -49 -222 13 -19 30 -20 53 -20 408 0 362 1 377 20 402 44 56 167 63
220 12 28 -27 29 -33 32 -124 l3 -96 133 -3 132 -3 0 186 c0 133 -4 195 -13
218 -19 44 -87 103 -134 116 -42 12 -460 13 -508 2z"/>
<path d="M7457 2483 c-15 -71 -27 -131 -27 -135 0 -5 72 -8 159 -8 168 0 196
-5 230 -41 18 -20 21 -35 21 -116 0 -151 -16 -163 -234 -163 -115 0 -148 -4
-182 -19 -49 -22 -101 -83 -115 -134 -6 -24 -9 -141 -7 -302 l3 -263 30 -44
c17 -23 51 -54 75 -68 l45 -25 328 -3 327 -3 0 646 c0 519 -3 652 -13 678 -19
44 -87 103 -134 116 -21 6 -134 11 -258 11 l-220 0 -28 -127z m383 -893 l0
-160 -77 0 c-164 0 -196 29 -191 173 3 86 4 90 36 118 31 28 36 29 132 29
l100 0 0 -160z"/>
<path d="M8310 1885 l0 -725 135 0 135 0 0 590 0 590 91 0 c100 0 148 -15 168
-53 8 -16 12 -180 14 -572 l2 -550 132 -3 133 -3 2 588 3 588 90 3 c101 3 150
-14 172 -58 10 -19 13 -155 13 -573 l0 -548 133 3 132 3 0 640 0 641 -26 49
c-18 35 -39 59 -74 80 l-48 30 -604 3 -603 3 0 -726z"/>
<path d="M9887 2604 c-4 -4 -7 -493 -7 -1086 l0 -1078 135 0 135 0 0 359 0
359 198 4 199 3 48 30 c35 21 56 45 74 80 l26 49 0 566 0 565 -28 47 c-18 31
-44 57 -75 75 l-47 28 -325 3 c-179 2 -329 0 -333 -4z m501 -298 l37 -34 0
-385 0 -385 -24 -26 c-33 -36 -82 -48 -171 -44 l-75 3 -3 440 c-1 242 0 446 3
453 3 8 33 12 100 12 95 0 96 0 133 -34z"/>
</g>
</svg>
